# xmcd
#
# Track frame offsets:
#	182
#	26747
#	53257
#	79740
#
# Disc length: 1386 seconds
#
# Revision: 3
# Processed by: cddbd v1.5.2PL0 Copyright (c) Steve Scherf et al.
# Submitted via: EZCDAudioConverter 1.3.4.1
#
DISCID=22056804
DTITLE=Yello - How How
DYEAR=1994
DGENRE=
TTITLE0=How How [Papa-Who-Ma-Mix]
TTITLE1=How How [Dee Doo Dee Mix]
TTITLE2=How How [Dee Doo Dee Dub]
TTITLE3=How How [Brown Cow Mix]
EXTD=
EXTT0=
EXTT1=
EXTT2=
EXTT3=
PLAYORDER=
